<svg xmlns="http://www.w3.org/2000/svg" height="800" width="1200" viewBox="-21.089655 -16.876575 182.77701 101.25945"><defs><clipPath id="a"><path d="M64 516.24h53v33.762H64z"/></clipPath></defs><path d="M21.091 53.1c-4.2774 0-7.4062 2.7978-7.4062 7.1875 0 4.3945 3.1289 7.2188 7.4062 7.2188 2.002 0 3.9678-.3848 5.75-1.3125v-7.1562h-5.0625l-1.1875 2.7812h3.3438v2.2188c-.5664.3076-1.5352.6875-2.8438.6875-2.5781 0-4.25-1.8838-4.25-4.4375s1.6719-4.4062 4.25-4.4062c1.5234 0 2.502.4629 3.3125 1.3125l2.125-2.3125c-1.36-1.27-3.26-1.78-5.43-1.78zm34.688 0c-4.2676 0-7.4062 2.7978-7.4062 7.1875 0 4.3945 3.1387 7.2188 7.4062 7.2188 1.8799 0 3.7998-.749 4.9375-2.375l-2.5-1.9062c-.6055.9277-1.5967 1.5-2.8125 1.5-2.1875 0-3.875-1.8838-3.875-4.4375s1.6885-4.4062 3.9688-4.4062c1.123 0 1.9717.4072 2.5625 1.125l2.3438-1.875c-1.17-1.48-3.1-2.02-4.63-2.02zm12.125 0c-4.2773 0-7.375 2.7978-7.375 7.1875 0 4.3945 3.0977 7.2188 7.375 7.2188 4.2774 0 7.4062-2.8242 7.4062-7.2188 0-4.3896-3.1289-7.1875-7.4062-7.1875zm45.656 0c-4.2725 0-7.4062 2.7978-7.4062 7.1875 0 4.3945 3.1338 7.2188 7.4062 7.2188 2.0117 0 3.9775-.3848 5.75-1.3125v-7.1562h-5.0625l-1.1875 2.7812h3.3438v2.2188c-.5615.3076-1.5303.6875-2.8438.6875-2.5732 0-4.25-1.8838-4.25-4.4375s1.6768-4.4062 4.25-4.4062c1.5234 0 2.502.4629 3.3125 1.3125l2.1562-2.3125c-1.38-1.27-3.3-1.78-5.47-1.78zm-107.65.34L0 67.16h3.3125l1.1562-2.9062h5.3125l1.1875 2.9062h3.4062L8.4061 53.441h-2.5zm22.969 0v13.719h3v-9.75h.0312l6 9.75h3.9375V53.44h-3.0312v9.5312h-.0312L32.9728 53.44zm15.125 0v13.719h3V53.44zm38.219 0v13.719h9.6562v-2.7812h-6.625v-2.8125h5.9375V58.784h-5.9375v-2.5625h6.2812v-2.7812h-9.3125zm16.156 0l-5.9062 13.719h3.3125l1.1562-2.9062h5.3125l1.1875 2.9062h3.4062l-5.9688-13.719h-2.5zm23 0v13.719h8.625v-2.7812h-5.5938v-10.938h-3.0312zm9.5625 0v13.719h9.6562v-2.7812h-6.6562v-2.8125h5.9375V58.784h-5.9375v-2.5625h6.2812v-2.7812h-9.2812zm-63.031 2.4375c2.5684 0 4.25 1.8525 4.25 4.4062s-1.6816 4.4375-4.25 4.4375c-2.5781 0-4.25-1.8838-4.25-4.4375s1.6719-4.4062 4.25-4.4062zM7.0665 57.44l1.6875 4.25H5.4102l1.6562-4.25zm92.469 0l1.6875 4.25h-3.3438l1.6562-4.25zM72.121 2.21l-.4834 9.8828 15.752 8.5693z"/><g transform="matrix(1.25 0 0 1.25 -49.4203 -645.3)" clip-path="url(#a)"><path fill="#ffcf00" d="M106.06 549.61l.8477-1.5625 2.6328-.1328-.6485-1-2.6524-.1719-.7265-3.6602 1.0234-1.6836 8.7578-.0117.6718.461.4493-1.5508-2.1445-1.7305-.008-1.211-41.648-21.117 2.246 9.2345 14.883 7.0859-25.051-.9532 31.402 10.508h3.8634l-2.3945 2.4648 7.1992 2.6524z"/></g></svg>