<?xml version="1.0" encoding="UTF-8" ?>
<!DOCTYPE svg PUBLIC "-//W3C//DTD SVG 1.1//EN" "http://www.w3.org/Graphics/SVG/1.1/DTD/svg11.dtd">
<svg width="800pt" height="238pt" viewBox="0 0 800 238" version="1.1" xmlns="http://www.w3.org/2000/svg">
<g id="#ffffffff">
</g>
<g id="#066aa6ff">
<path fill="#066aa6" opacity="1.00" d=" M 0.00 2.01 L 0.01 0.66 C 34.19 8.09 68.44 15.19 102.61 22.63 C 102.66 41.87 102.63 61.12 102.64 80.37 C 74.13 88.34 45.48 95.82 16.94 103.70 C 12.68 76.77 8.07 49.89 3.72 22.98 C 2.53 16.35 1.94 9.61 0.00 3.14 L 0.00 2.01 Z" />
<path fill="#066aa6" opacity="1.00" d=" M 111.41 24.40 C 129.04 28.31 146.72 31.97 164.38 35.75 C 161.89 53.40 159.13 71.04 157.16 88.75 C 152.41 88.62 147.81 87.27 143.14 86.54 C 132.56 84.50 121.94 82.68 111.38 80.52 C 111.39 61.81 111.34 43.11 111.41 24.40 Z" />
<path fill="#066aa6" opacity="1.00" d=" M 109.06 89.54 C 110.41 89.55 111.77 89.57 113.11 89.81 C 127.26 92.52 141.42 95.17 155.61 97.67 C 153.86 112.65 151.44 127.55 149.42 142.50 C 130.91 144.31 112.42 146.33 93.90 147.93 C 98.21 130.95 102.94 114.08 107.43 97.15 C 108.14 94.65 108.76 92.12 109.06 89.54 Z" />
<path fill="#066aa6" opacity="1.00" d=" M 18.55 111.98 C 45.93 104.86 73.08 96.86 100.51 89.93 C 95.08 109.63 90.05 129.45 84.52 149.13 C 64.80 151.07 45.18 154.12 25.45 155.94 C 23.26 141.27 20.61 126.67 18.55 111.98 Z" />
<path fill="#066aa6" opacity="1.00" d=" M 26.27 164.51 C 51.31 161.60 76.34 158.68 101.40 156.00 C 101.40 183.34 101.70 210.67 101.56 238.00 L 99.27 238.00 L 101.07 237.79 C 76.20 213.29 51.17 188.97 26.27 164.51 Z" />
</g>
<g id="#010101ff">
<path fill="#010101" opacity="1.00" d=" M 224.76 42.59 C 228.20 42.64 231.64 42.59 235.08 42.63 C 233.60 44.65 232.00 46.58 230.35 48.46 C 227.66 48.48 224.97 48.46 222.28 48.46 C 222.39 48.05 222.60 47.22 222.71 46.81 C 223.41 45.41 224.08 44.00 224.76 42.59 Z" />
<path fill="#010101" opacity="1.00" d=" M 187.05 47.13 C 193.85 43.21 201.99 43.86 209.47 44.76 C 209.61 47.36 209.78 49.97 210.26 52.54 C 205.45 52.59 200.44 50.41 195.85 52.85 C 187.96 55.61 186.41 68.21 193.94 72.27 C 198.95 74.28 204.33 73.11 209.41 72.04 C 208.81 74.75 208.36 77.48 208.08 80.24 C 200.05 81.29 190.88 82.08 183.98 76.98 C 174.37 69.60 176.43 52.59 187.05 47.13 Z" />
<path fill="#010101" opacity="1.00" d=" M 380.18 53.37 C 380.25 50.43 380.44 47.50 380.51 44.57 C 383.94 44.58 387.38 44.58 390.82 44.64 C 389.98 56.53 388.94 68.41 388.88 80.33 C 385.73 80.40 382.58 80.40 379.44 80.34 C 379.44 79.58 379.42 78.06 379.41 77.29 C 374.84 81.97 366.09 82.58 361.72 77.36 C 356.44 70.45 358.64 58.73 366.62 54.82 C 370.78 52.58 375.65 53.24 380.18 53.37 M 371.89 61.90 C 369.11 64.15 368.47 68.22 369.77 71.45 C 370.88 73.73 373.88 74.20 376.03 73.24 C 379.96 70.22 379.37 64.59 379.56 60.18 C 376.95 60.23 373.93 59.91 371.89 61.90 Z" />
<path fill="#010101" opacity="1.00" d=" M 222.42 53.67 C 227.34 52.89 233.11 52.51 237.25 55.81 C 241.08 58.74 241.92 64.13 240.62 68.55 C 234.42 68.46 228.22 68.48 222.02 68.53 C 222.59 70.29 222.94 72.53 224.82 73.39 C 229.23 75.73 234.33 73.98 238.74 72.54 C 238.31 75.09 237.82 77.62 237.38 80.17 C 230.36 81.23 222.27 82.24 216.12 77.90 C 208.74 70.96 212.25 55.97 222.42 53.67 M 222.63 63.63 C 225.41 63.65 228.20 63.74 230.98 63.60 C 231.86 61.99 230.05 59.00 228.01 59.19 C 225.16 58.57 223.27 61.23 222.63 63.63 Z" />
<path fill="#010101" opacity="1.00" d=" M 244.01 62.16 C 246.05 57.32 250.88 54.20 255.98 53.50 C 261.96 52.78 268.04 53.27 273.91 54.53 C 273.21 64.36 272.81 74.20 272.47 84.04 C 272.45 87.47 270.24 90.82 266.99 92.00 C 260.15 94.51 252.70 92.95 245.84 91.38 C 245.75 88.95 245.63 86.53 245.52 84.11 C 250.59 85.44 256.59 87.47 261.40 84.36 C 262.15 82.17 263.19 79.80 262.45 77.47 C 258.74 80.34 253.62 81.94 249.17 79.76 C 242.50 77.01 241.32 68.13 244.01 62.16 M 253.37 65.38 C 251.43 68.98 254.44 74.88 258.94 73.18 C 263.64 71.17 263.25 64.98 263.38 60.72 C 259.53 60.37 254.81 61.25 253.37 65.38 Z" />
<path fill="#010101" opacity="1.00" d=" M 287.46 53.64 C 292.82 52.72 299.16 52.71 303.43 56.62 C 306.36 59.79 306.38 64.40 306.12 68.46 C 299.79 68.55 293.47 68.44 287.15 68.52 C 287.56 70.29 287.86 72.45 289.75 73.28 C 294.05 75.71 299.25 74.10 303.58 72.55 C 303.42 75.12 302.97 77.66 302.51 80.19 C 295.40 81.04 287.33 82.20 281.04 77.91 C 273.90 70.65 277.37 56.19 287.46 53.64 M 287.60 63.59 C 290.60 63.68 293.60 63.70 296.61 63.57 C 295.93 61.78 295.55 58.97 293.02 59.18 C 290.16 58.64 288.49 61.34 287.60 63.59 Z" />
<path fill="#010101" opacity="1.00" d=" M 309.82 54.47 C 316.17 53.32 322.67 52.87 329.12 53.40 C 334.79 53.97 339.73 59.14 339.72 64.91 C 340.35 70.72 338.46 78.03 332.49 80.33 C 327.81 82.26 322.86 80.29 318.74 77.96 C 318.64 82.88 318.44 87.80 318.46 92.72 C 314.92 92.81 311.37 92.83 307.83 92.72 C 309.27 80.03 309.76 67.24 309.82 54.47 M 319.79 61.11 C 319.69 64.73 318.57 68.87 320.96 72.02 C 322.64 74.30 326.42 74.28 328.10 72.01 C 330.08 69.02 330.54 64.63 327.97 61.83 C 325.81 59.67 322.42 60.40 319.79 61.11 Z" />
<path fill="#010101" opacity="1.00" d=" M 396.54 58.53 C 401.24 52.18 410.50 52.08 417.28 54.69 C 422.16 57.43 422.99 63.39 422.41 68.46 C 416.09 68.55 409.77 68.44 403.45 68.53 C 403.64 70.52 404.45 72.62 406.40 73.50 C 410.71 75.69 415.63 73.92 419.96 72.68 C 419.62 75.22 419.34 77.80 418.57 80.26 C 412.11 81.03 404.99 82.14 399.02 78.87 C 392.05 74.81 392.35 64.52 396.54 58.53 M 406.55 59.69 C 405.00 60.42 404.65 62.23 404.00 63.64 C 406.95 63.69 409.91 63.68 412.87 63.56 C 412.40 62.22 411.90 60.89 411.41 59.56 C 409.80 59.47 408.04 58.80 406.55 59.69 Z" />
<path fill="#010101" opacity="1.00" d=" M 437.80 102.32 C 441.41 102.13 445.05 101.99 448.65 102.43 C 446.87 104.20 445.14 106.03 443.85 108.20 C 440.99 108.38 438.12 108.35 435.26 108.39 C 436.15 106.39 437.02 104.37 437.80 102.32 Z" />
<path fill="#010101" opacity="1.00" d=" M 280.41 103.69 C 283.78 103.70 287.15 103.70 290.52 103.72 C 290.51 105.70 290.48 107.68 290.45 109.67 C 287.08 109.75 283.71 109.73 280.34 109.72 C 280.38 107.71 280.40 105.70 280.41 103.69 Z" />
<path fill="#010101" opacity="1.00" d=" M 317.83 103.77 C 321.18 103.68 324.52 103.71 327.87 103.67 C 327.85 105.69 327.83 107.70 327.82 109.71 C 324.42 109.73 321.02 109.75 317.63 109.66 C 317.69 107.69 317.76 105.73 317.83 103.77 Z" />
<path fill="#010101" opacity="1.00" d=" M 367.47 103.72 C 370.87 103.70 374.26 103.70 377.66 103.72 C 377.62 105.72 377.58 107.73 377.56 109.74 C 374.17 109.73 370.78 109.74 367.39 109.69 C 367.40 107.70 367.42 105.71 367.47 103.72 Z" />
<path fill="#010101" opacity="1.00" d=" M 507.33 103.72 C 510.75 103.70 514.16 103.72 517.58 103.69 C 517.49 105.71 517.39 107.73 517.30 109.74 C 513.92 109.73 510.55 109.75 507.18 109.69 C 507.23 107.70 507.28 105.71 507.33 103.72 Z" />
<path fill="#010101" opacity="1.00" d=" M 654.34 103.71 C 657.73 103.70 661.12 103.71 664.51 103.70 C 664.45 105.70 664.37 107.71 664.27 109.72 C 660.90 109.73 657.53 109.74 654.17 109.69 C 654.20 107.69 654.26 105.70 654.34 103.71 Z" />
<path fill="#010101" opacity="1.00" d=" M 179.95 104.45 C 183.45 104.38 186.96 104.42 190.47 104.39 C 189.61 116.36 188.95 128.33 188.55 140.32 C 185.11 140.25 181.67 140.22 178.23 140.34 C 178.93 128.39 179.78 116.43 179.95 104.45 Z" />
<path fill="#010101" opacity="1.00" d=" M 198.00 104.39 C 200.54 104.41 203.08 104.41 205.62 104.34 C 203.60 107.64 201.51 110.89 199.73 114.32 C 198.15 114.36 196.57 114.40 194.99 114.44 C 195.71 111.01 196.98 107.74 198.00 104.39 Z" />
<path fill="#010101" opacity="1.00" d=" M 218.19 104.48 C 222.62 104.28 227.06 104.46 231.49 104.41 C 235.37 116.06 239.79 127.52 244.07 139.03 L 244.85 138.15 C 245.75 126.92 246.29 115.65 246.57 104.38 C 250.02 104.41 253.46 104.42 256.91 104.38 C 256.69 107.37 256.44 110.35 256.23 113.34 C 261.69 112.46 268.46 111.94 272.59 116.39 C 276.15 119.88 276.00 125.29 275.43 129.88 C 274.52 133.82 272.33 137.84 268.50 139.58 C 263.90 141.97 258.02 140.79 254.55 136.99 C 254.50 137.80 254.40 139.43 254.35 140.24 C 247.18 140.35 240.01 140.26 232.84 140.30 C 231.96 136.67 230.67 133.16 229.34 129.68 C 224.91 129.75 220.48 129.69 216.05 129.72 C 214.46 133.25 212.89 136.78 211.29 140.31 C 207.26 140.27 203.22 140.26 199.19 140.34 C 205.81 128.54 211.86 116.41 218.19 104.48 M 223.97 112.67 C 222.49 115.89 220.93 119.07 219.48 122.30 C 222.12 122.20 224.77 122.19 227.43 122.15 C 226.19 119.02 225.52 115.67 223.97 112.67 M 255.80 120.50 C 255.63 123.66 254.91 126.97 255.90 130.06 C 256.77 132.79 260.35 134.60 262.81 132.72 C 266.30 130.18 266.11 125.08 264.34 121.56 C 261.79 119.80 258.70 120.14 255.80 120.50 Z" />
<path fill="#010101" opacity="1.00" d=" M 333.48 104.39 C 336.97 104.42 340.46 104.40 343.95 104.41 C 343.68 107.39 343.41 110.37 343.33 113.37 C 348.01 112.51 353.23 112.08 357.47 114.67 C 361.48 116.83 363.03 121.74 362.78 126.05 C 362.77 131.56 360.33 137.86 354.77 139.86 C 350.28 141.91 345.04 140.50 341.61 137.13 C 341.57 137.93 341.48 139.52 341.44 140.32 C 338.17 140.24 334.91 140.25 331.65 140.35 C 332.67 128.39 333.52 116.40 333.48 104.39 M 342.78 120.58 C 342.43 125.03 341.46 130.47 345.65 133.51 C 351.92 134.70 354.63 126.04 351.20 121.86 C 349.04 119.45 345.59 120.16 342.78 120.58 Z" />
<path fill="#010101" opacity="1.00" d=" M 392.62 104.45 C 403.82 104.35 415.02 104.47 426.22 104.38 C 425.97 106.99 425.74 109.61 425.62 112.23 C 421.94 112.18 418.28 111.70 414.60 111.74 C 414.08 121.26 413.67 130.78 413.42 140.31 C 409.66 140.23 405.90 140.19 402.14 140.37 C 402.99 130.85 403.63 121.30 403.70 111.74 C 399.98 111.75 396.29 112.23 392.58 112.21 C 392.58 109.62 392.61 107.03 392.62 104.45 Z" />
<path fill="#010101" opacity="1.00" d=" M 298.45 108.61 C 301.59 107.78 304.75 107.03 307.94 106.39 C 307.89 108.73 307.83 111.08 307.74 113.42 C 309.70 113.41 311.65 113.40 313.62 113.39 C 313.58 115.69 313.57 117.99 313.56 120.29 C 311.51 120.32 309.46 120.33 307.42 120.31 C 307.36 124.27 306.81 128.29 307.52 132.21 C 309.00 134.14 311.53 132.90 313.45 132.63 C 313.12 135.17 312.59 137.69 312.05 140.20 C 307.25 140.57 301.45 142.03 297.65 138.15 C 295.40 132.38 297.75 126.25 297.46 120.31 C 296.13 120.31 294.80 120.32 293.48 120.33 C 293.53 118.02 293.59 115.72 293.60 113.41 C 295.08 113.42 296.56 113.42 298.05 113.42 C 298.19 111.82 298.33 110.22 298.45 108.61 Z" />
<path fill="#010101" opacity="1.00" d=" M 279.88 113.44 C 283.42 113.41 286.97 113.41 290.52 113.41 C 289.75 122.36 289.61 131.34 289.68 140.32 C 285.94 140.27 282.21 140.27 278.48 140.34 C 279.83 131.44 279.88 122.41 279.88 113.44 Z" />
<path fill="#010101" opacity="1.00" d=" M 317.29 113.43 C 320.83 113.41 324.36 113.41 327.89 113.41 C 327.16 122.35 327.03 131.32 327.23 140.29 C 323.49 140.27 319.75 140.28 316.02 140.30 C 316.64 136.27 316.54 132.18 317.14 128.15 C 317.25 123.24 317.36 118.34 317.29 113.43 Z" />
<path fill="#010101" opacity="1.00" d=" M 430.19 116.22 C 435.68 111.87 443.98 111.57 449.99 115.03 C 454.48 117.87 454.72 123.65 454.24 128.39 C 447.92 128.36 441.60 128.37 435.28 128.41 C 435.85 130.37 436.63 132.65 438.76 133.40 C 443.04 135.04 447.64 133.43 451.87 132.45 C 451.53 135.01 451.09 137.56 450.41 140.06 C 443.78 140.68 436.41 141.88 430.39 138.26 C 423.28 133.25 424.40 121.83 430.19 116.22 M 435.89 123.30 C 438.83 123.33 441.79 123.31 444.74 123.28 C 444.44 120.99 443.24 119.21 441.04 118.41 C 438.48 119.00 436.47 120.64 435.89 123.30 Z" />
<path fill="#010101" opacity="1.00" d=" M 467.45 116.38 C 471.71 111.86 480.57 110.90 484.03 116.80 C 486.02 114.46 488.70 112.73 491.88 112.78 C 495.91 112.26 501.50 114.18 501.58 118.99 C 501.64 126.11 500.72 133.21 500.60 140.33 C 497.19 140.25 493.78 140.21 490.37 140.31 C 490.77 135.20 491.17 130.08 491.36 124.96 C 491.34 123.34 491.12 121.27 489.48 120.48 C 488.01 119.95 486.84 121.16 485.63 121.74 C 483.25 127.68 484.72 134.16 483.67 140.33 C 480.28 140.27 476.90 140.28 473.51 140.27 C 474.01 134.12 474.55 127.96 474.38 121.79 C 472.74 120.05 470.50 120.14 468.80 121.71 C 467.21 126.31 467.16 131.20 467.29 136.01 C 467.11 137.43 467.60 139.15 466.47 140.27 C 463.18 140.38 459.89 140.23 456.61 140.25 C 457.41 131.35 457.77 122.40 457.80 113.47 C 461.04 113.41 464.29 113.46 467.53 113.31 C 467.51 114.08 467.47 115.61 467.45 116.38 Z" />
<path fill="#010101" opacity="1.00" d=" M 526.25 114.23 C 531.35 111.62 537.23 113.06 542.64 113.57 C 542.71 115.95 542.78 118.33 542.88 120.71 C 539.90 119.78 536.77 119.32 533.67 119.85 C 533.52 120.41 533.21 121.53 533.06 122.09 C 536.26 124.78 540.67 126.81 542.04 131.05 C 543.30 134.23 541.33 137.93 538.29 139.19 C 533.03 141.74 526.97 140.73 521.49 139.53 C 521.37 137.02 521.07 134.53 520.74 132.05 C 524.21 133.22 528.03 134.63 531.68 133.34 C 531.76 132.54 531.79 131.74 531.76 130.93 C 527.63 127.93 522.09 124.55 522.58 118.65 C 523.52 116.99 524.31 114.97 526.25 114.23 Z" />
<path fill="#010101" opacity="1.00" d=" M 550.05 115.89 C 555.24 111.51 562.53 112.66 568.71 113.60 C 568.93 116.28 569.21 118.94 569.43 121.62 C 565.60 120.33 560.51 119.07 557.30 122.32 C 555.18 124.84 555.59 128.35 556.59 131.25 C 560.00 134.15 564.54 133.22 568.47 132.12 C 568.13 134.79 567.66 137.45 567.22 140.12 C 561.12 140.80 553.67 141.99 548.97 137.01 C 544.07 131.12 544.66 121.29 550.05 115.89 Z" />
<path fill="#010101" opacity="1.00" d=" M 575.94 114.34 C 581.89 113.20 588.09 111.94 594.11 113.33 C 596.81 113.88 599.63 116.01 599.61 119.01 C 599.64 126.11 598.98 133.20 598.68 140.29 C 595.32 140.28 591.97 140.25 588.62 140.30 C 589.05 136.32 589.44 132.34 589.43 128.33 C 587.03 129.02 584.67 129.82 582.32 130.61 C 581.97 131.59 580.54 132.53 581.30 133.63 C 582.29 135.88 585.11 135.40 586.99 134.66 C 586.36 136.59 585.77 138.52 585.23 140.46 C 581.09 141.00 576.12 141.24 572.98 137.97 C 570.03 134.67 570.90 129.26 574.30 126.62 C 578.73 124.25 583.84 124.02 588.46 122.24 C 589.89 121.85 589.88 118.69 588.12 118.61 C 583.57 117.64 579.09 119.41 574.79 120.70 C 575.25 118.60 575.63 116.47 575.94 114.34 Z" />
<path fill="#010101" opacity="1.00" d=" M 614.46 116.49 C 618.25 112.38 624.64 111.55 629.39 114.49 C 629.90 115.27 630.42 116.05 630.95 116.83 C 634.62 112.03 641.62 111.70 646.62 114.50 C 647.67 116.16 648.81 117.94 648.60 120.01 C 648.44 126.78 647.78 133.52 647.59 140.30 C 644.18 140.31 640.78 140.27 637.38 140.29 C 637.69 134.83 638.21 129.38 638.30 123.92 C 638.25 122.58 637.65 120.35 635.94 120.48 C 633.79 119.96 632.19 122.34 631.77 124.17 C 630.76 129.48 631.39 134.93 630.65 140.27 C 627.27 140.28 623.90 140.26 620.53 140.32 C 620.80 134.56 621.58 128.80 621.38 123.04 C 621.09 120.01 617.54 119.78 615.78 121.68 C 613.95 127.37 613.94 133.56 614.37 139.43 C 611.21 141.19 607.23 139.84 603.73 140.31 C 603.74 138.83 603.76 137.35 603.79 135.87 L 604.20 135.27 C 604.24 127.99 604.86 120.74 604.80 113.47 C 608.03 113.39 611.26 113.43 614.50 113.40 C 614.49 114.17 614.47 115.72 614.46 116.49 Z" />
<path fill="#010101" opacity="1.00" d=" M 669.74 113.45 C 673.25 113.48 676.78 113.19 680.28 113.59 C 680.15 114.41 679.91 116.05 679.79 116.87 C 683.51 113.21 689.04 111.82 694.06 113.24 C 697.09 113.89 699.69 116.67 699.71 119.85 C 699.88 126.68 699.04 133.48 699.19 140.31 C 695.66 140.28 692.13 140.28 688.60 140.26 C 688.82 134.05 690.86 127.46 688.31 121.51 C 685.86 120.93 682.54 120.70 681.15 123.28 C 678.34 128.46 679.49 134.66 678.63 140.30 C 675.18 140.29 671.74 140.29 668.31 140.29 C 669.18 131.37 669.90 122.42 669.74 113.45 Z" />
<path fill="#010101" opacity="1.00" d=" M 704.78 120.86 C 706.82 116.93 710.85 114.26 715.15 113.40 C 721.53 112.04 728.16 112.89 734.46 114.36 C 732.95 124.85 733.60 135.49 732.47 146.01 C 731.52 149.74 727.97 151.95 724.37 152.52 C 718.37 153.43 712.32 152.42 706.42 151.32 C 706.20 148.86 705.94 146.39 705.76 143.93 C 710.84 144.97 716.53 147.09 721.45 144.37 C 722.57 142.15 722.99 139.69 723.41 137.26 C 720.84 137.99 718.80 140.06 716.04 140.27 C 710.52 141.43 704.60 137.66 703.47 132.13 C 702.91 128.37 702.91 124.27 704.78 120.86 M 717.25 121.23 C 712.98 122.96 711.67 129.52 715.30 132.52 C 717.27 132.99 720.03 133.42 721.36 131.47 C 723.81 128.38 723.51 124.17 723.69 120.45 C 721.53 120.56 719.23 120.19 717.25 121.23 Z" />
<path fill="#010101" opacity="1.00" d=" M 739.72 113.48 C 743.24 113.38 746.76 113.37 750.29 113.55 C 749.66 118.35 749.25 123.19 749.24 128.03 C 749.07 129.67 750.02 131.02 750.82 132.36 C 752.72 132.59 754.62 132.40 756.36 131.51 C 759.47 126.05 758.48 119.49 758.79 113.47 C 762.29 113.38 765.78 113.39 769.29 113.47 C 768.15 122.34 767.83 131.33 767.68 140.27 C 764.47 140.30 761.26 140.25 758.06 140.28 C 757.84 139.17 757.62 138.06 757.42 136.95 C 754.03 141.16 747.81 141.63 743.04 139.86 C 739.49 138.59 738.36 134.40 738.83 131.00 C 739.46 125.18 739.53 119.33 739.72 113.48 Z" />
<path fill="#010101" opacity="1.00" d=" M 774.65 118.51 C 778.42 112.92 786.13 111.83 792.27 113.30 C 795.70 114.00 798.78 116.27 800.00 119.63 L 800.00 128.40 C 793.80 128.45 787.58 128.15 781.40 128.61 C 782.42 130.20 782.83 132.59 784.85 133.26 C 789.24 135.12 794.03 133.45 798.42 132.46 C 797.96 134.86 797.52 137.26 797.23 139.69 C 790.11 141.15 781.73 141.92 775.55 137.34 C 770.55 132.47 771.03 124.04 774.65 118.51 M 782.37 123.36 C 785.28 123.33 788.20 123.33 791.12 123.34 C 790.52 121.90 790.68 119.84 788.97 119.18 C 786.00 117.57 782.77 120.38 782.37 123.36 Z" />
<path fill="#010101" opacity="1.00" d=" M 367.12 113.41 C 370.63 113.42 374.14 113.41 377.65 113.42 C 376.76 122.36 376.62 131.34 376.59 140.31 C 372.91 140.27 369.24 140.31 365.57 140.26 C 366.84 131.37 366.82 122.36 367.12 113.41 Z" />
<path fill="#010101" opacity="1.00" d=" M 506.77 113.48 C 510.32 113.37 513.87 113.40 517.43 113.42 C 516.75 122.38 516.43 131.34 516.53 140.33 C 512.86 140.27 509.19 140.29 505.53 140.26 C 506.64 131.39 506.85 122.42 506.77 113.48 Z" />
<path fill="#010101" opacity="1.00" d=" M 653.78 113.45 C 657.34 113.40 660.89 113.42 664.46 113.41 C 663.65 122.34 663.38 131.30 663.60 140.27 C 659.89 140.29 656.18 140.26 652.47 140.30 C 653.65 131.41 653.80 122.41 653.78 113.45 Z" />
<path fill="#010101" opacity="1.00" d=" M 379.18 122.75 C 383.90 122.82 388.63 122.85 393.36 122.69 C 393.17 125.24 393.70 128.00 392.48 130.37 C 387.98 129.37 383.34 130.05 378.78 129.85 C 378.86 127.48 378.99 125.11 379.18 122.75 Z" />
</g>
</svg>
