<?xml version="1.0" encoding="utf-8"?>
<svg version="1.1" xmlns="http://www.w3.org/2000/svg" width="167" height="89" viewBox="0 0 167 89" enable-background="new 0 0 167 89">
 <rect width="166.9" height="89"/>
 <polygon points="23.7,69.2 28,47 20.2,47 21.3,41.7 43.1,41.7 42,47 34.3,47 30,69.2 " fill="#66cc33"/>
 <path d="M50.4,61.8c-0.2,1.1,0,2,1.6,2h10.7l-1,5.4h-12c-4.8-0.1-6.6-1.6-5.8-6.1L48,41.7h19l-1,5.4H53.3l-1,5.4h11.6
	l-1,5.3H51.2L50.4,61.8z" fill="#66cc33"/>
 <path d="M74.8,61.6c-0.2,1.1,0,2.2,1.7,2.2h10.1l-1,5.4H74c-4.8-0.1-6.6-1.6-5.8-6.1l4.2-21.4h6.3L74.8,61.6z" fill="#66cc33"/>
 <path d="M90.3,57.6l3.1-16h6.2l-3,15.2c-1.4,7.2,2.6,7,3.8,7c1.4,0,5.1,0.2,6.4-7l3-15.2h6.3l-3.1,16
	c-2.2,11.4-10.4,12-13.8,12C96,69.7,88.1,69,90.3,57.6" fill="#66cc33"/>
 <path d="M135.1,71.3c1.9,0,4.1-0.3,5.5-0.7l-0.9,4.7c-1.4,0.6-3.6,0.9-5.5,0.9c-4.2,0-7.8-2.3-7.4-6.6v0
	c-7-1-10.7-6.2-9.2-14c2-10.3,10.4-14.3,17.1-14.3c6.6,0,13.5,4,11.5,14.3c-1.4,7.5-6.9,12.6-13.9,13.9
	C132.4,70.2,133.4,71.3,135.1,71.3 M140,55.5c1.2-6.1-2.6-8.8-6.3-8.8c-3.7,0-8.5,2.7-9.7,8.8c-1,5,1.6,8.6,6.3,8.6
	C134.9,64.1,139,60.5,140,55.5" fill="#66cc33"/>
 <polygon points="57.7,32.1 54.6,37.9 59.1,37.9 62.8,32.1 " fill="#66cc33"/>
 <path d="M22.9,24.8v-5h2v4.8c0,2.2,1.2,2.2,1.6,2.2c0.5,0,1.6,0.1,1.6-2.2v-4.8h2v5c0,3.6-2.5,3.8-3.6,3.8
	C25.5,28.5,22.9,28.4,22.9,24.8" fill="#ffffff"/>
 <path d="M37.7,28.4v-8.7h2c1.1,1.6,2.2,3.2,2.9,4.8v-4.8h2v8.7h-1.9c-0.8-1.7-1.7-3.5-3-5.2v5.2H37.7z" fill="#ffffff"/>
 <rect x="52.2" y="19.7" width="2" height="8.7" fill="#ffffff"/>
 <polygon points="66.5,19.7 68.6,19.7 65.7,28.4 63.9,28.4 60.9,19.7 63,19.7 64.8,25.4 " fill="#ffffff"/>
 <path d="M77.3,26c0,0.4,0.1,0.6,0.6,0.6h3.3v1.7h-3.8c-1.5,0-2.2-0.5-2.2-1.9v-6.7h5.9v1.7h-4v1.7H81v1.7h-3.6V26z" fill="#ffffff"/>
 <path d="M93.6,25.4c0.8,1,1.5,2.1,2,3h-2.1c-0.4-0.8-1.1-1.9-1.7-2.7c-0.3-0.4-0.4-0.6-0.8-0.6h-0.3v3.2h-2v-8.7h3.5
	c1.5,0,2.7,0.9,2.7,2.7c0,1.8-1.1,2.4-1.9,2.4C93.3,24.9,93.6,25.3,93.6,25.4 M92.1,23.5c0.5,0,0.9-0.4,0.9-1.1c0-0.6-0.5-1-0.9-1
	h-1.5v2.1H92.1z" fill="#ffffff"/>
 <path d="M102.1,26.1c0.6,0.4,1.9,0.7,2.9,0.7c0.8,0,1.3-0.2,1.4-0.7c0.1-0.6-0.8-0.9-1.9-1.2l-0.5-0.2
	c-2-0.6-2-2.2-2-2.5c0-1.5,1.2-2.6,3.5-2.6c0.8,0,2,0.3,2.5,0.6v1.7c-1.1-0.4-1.9-0.6-2.5-0.6c-1,0-1.5,0.4-1.5,0.9
	c0,0,0,0.5,0.6,0.7c0.1,0,0.3,0.1,0.5,0.2c1.9,0.6,3.4,1.1,3.2,3c-0.2,2-1.5,2.5-3.4,2.5c-1,0-2.1-0.3-2.9-0.7L102.1,26.1
	L102.1,26.1z" fill="#ffffff"/>
 <rect x="115.5" y="19.7" width="2" height="8.7" fill="#ffffff"/>
 <polygon points="126.8,28.4 126.8,21.5 124.3,21.5 124.3,19.7 131.2,19.7 131.2,21.5 128.8,21.5 128.8,28.4 " fill="#ffffff"/>
 <path d="M140,26c0,0.4,0.1,0.6,0.6,0.6h3.3v1.7h-3.8c-1.5,0-2.2-0.5-2.2-1.9v-6.7h5.9v1.7h-4v1.7h3.6v1.7H140L140,26
	L140,26z M141.4,18.8H140l0.9-2.1h1.7L141.4,18.8z" fill="#ffffff"/>
</svg>
