<?xml version="1.0" encoding="UTF-8" standalone="no"?>
<!-- Created with Inkscape (http://www.inkscape.org/) -->
<svg
   xmlns:dc="http://purl.org/dc/elements/1.1/"
   xmlns:cc="http://creativecommons.org/ns#"
   xmlns:rdf="http://www.w3.org/1999/02/22-rdf-syntax-ns#"
   xmlns:svg="http://www.w3.org/2000/svg"
   xmlns="http://www.w3.org/2000/svg"
   xmlns:sodipodi="http://sodipodi.sourceforge.net/DTD/sodipodi-0.dtd"
   xmlns:inkscape="http://www.inkscape.org/namespaces/inkscape"
   width="35"
   height="25"
   id="svg2858"
   sodipodi:version="0.32"
   inkscape:version="0.46"
   version="1.0"
   sodipodi:docname="Université du Québec.svg"
   inkscape:output_extension="org.inkscape.output.svg.inkscape">
  <defs
     id="defs2860">
    <clipPath
       clipPathUnits="userSpaceOnUse"
       id="clipPath181">
      <path
         d="M 420,138.85713 L 557.72662,138.85713 L 557.72662,118.63399 L 420,118.63399 L 420,138.85713 z"
         id="path183" />
    </clipPath>
    <clipPath
       clipPathUnits="userSpaceOnUse"
       id="clipPath171">
      <path
         d="M 420,138.85713 L 557.72662,138.85713 L 557.72662,118.63399 L 420,118.63399 L 420,138.85713"
         id="path173" />
    </clipPath>
    <clipPath
       clipPathUnits="userSpaceOnUse"
       id="clipPath163">
      <path
         d="M 420.00299,138.86099 L 420.00299,118.638 L 557.72998,118.638 L 557.72998,138.86099 L 420.00299,138.86099"
         id="path165" />
    </clipPath>
    <inkscape:perspective
       sodipodi:type="inkscape:persp3d"
       inkscape:vp_x="0 : 526.18109 : 1"
       inkscape:vp_y="0 : 1000 : 0"
       inkscape:vp_z="744.09448 : 526.18109 : 1"
       inkscape:persp3d-origin="372.04724 : 350.78739 : 1"
       id="perspective2866" />
  </defs>
  <sodipodi:namedview
     id="base"
     pagecolor="#ffffff"
     bordercolor="#666666"
     borderopacity="1.0"
     inkscape:pageopacity="0.0"
     inkscape:pageshadow="2"
     inkscape:zoom="5.4052625"
     inkscape:cx="85.842273"
     inkscape:cy="12.441883"
     inkscape:document-units="px"
     inkscape:current-layer="layer1"
     showgrid="false"
     inkscape:window-width="1024"
     inkscape:window-height="712"
     inkscape:window-x="-4"
     inkscape:window-y="-4" />
  <metadata
     id="metadata2863">
    <rdf:RDF>
      <cc:Work
         rdf:about="">
        <dc:format>image/svg+xml</dc:format>
        <dc:type
           rdf:resource="http://purl.org/dc/dcmitype/StillImage" />
      </cc:Work>
    </rdf:RDF>
  </metadata>
  <g
     inkscape:label="Calque 1"
     inkscape:groupmode="layer"
     id="layer1"
     transform="translate(-282.72915,-397.06316)">
    <g
       transform="matrix(1.25,0,0,-1.25,-242.63383,570.3506)"
       id="g159">
      <g
         id="g161"
         clip-path="url(#clipPath163)">
        <g
           id="g167">
          <g
             id="g169"
             clip-path="url(#clipPath171)">
            <g
               id="g175">
              <g
                 id="g177">
                <g
                   id="g179"
                   clip-path="url(#clipPath181)">
                  <g
                     id="g185"
                     transform="matrix(0.34868,0,0,0.34868,420,118.63399)">
                    <path
                       d="M 57.04839,57.18985 L 78.50812,57.18985 L 66.44319,0.41287 L 44.98334,0.41287 L 57.04839,57.18985 z"
                       style="fill:#e6c126;fill-opacity:1;fill-rule:nonzero;stroke:none"
                       id="path187" />
                    <path
                       d="M 57.04839,57.18985 L 78.50812,57.18985 L 66.44319,0.41287 L 44.98334,0.41287 L 57.04839,57.18985 z"
                       style="fill:none;stroke:#e6c126;stroke-width:0.31551;stroke-linecap:butt;stroke-linejoin:miter;stroke-miterlimit:3.8636899;stroke-dasharray:none;stroke-opacity:1"
                       id="path189" />
                    <path
                       d="M 9.02951,57.18985 L 30.36337,57.18985 L 22.32443,19.35962 L 0.99057,19.35962 L 9.02951,57.18985 z"
                       style="fill:#e6c126;fill-opacity:1;fill-rule:nonzero;stroke:none"
                       id="path191" />
                    <path
                       d="M 9.02951,57.18985 L 30.36337,57.18985 L 22.32443,19.35962 L 0.99057,19.35962 L 9.02951,57.18985 z"
                       style="fill:none;stroke:#e6c126;stroke-width:0.31551;stroke-linecap:butt;stroke-linejoin:miter;stroke-miterlimit:3.8636899;stroke-dasharray:none;stroke-opacity:1"
                       id="path193" />
                    <path
                       d="M 33.00702,57.18985 L 54.34088,57.18985 L 46.30206,19.35962 L 24.96808,19.35962 L 33.00702,57.18985 z"
                       style="fill:#e6c126;fill-opacity:1;fill-rule:nonzero;stroke:none"
                       id="path195" />
                    <path
                       d="M 33.00702,57.18985 L 54.34088,57.18985 L 46.30206,19.35962 L 24.96808,19.35962 L 33.00702,57.18985 z"
                       style="fill:none;stroke:#e6c126;stroke-width:0.31551;stroke-linecap:butt;stroke-linejoin:miter;stroke-miterlimit:3.8636899;stroke-dasharray:none;stroke-opacity:1"
                       id="path197" />
                    <path
                       d="M 92.10222,41.18768 L 89.57811,29.22986 C 88.28448,22.95071 90.05132,18.78635 97.24545,18.78635 C 103.36652,18.78635 106.01683,22.22534 107.2787,27.87308 L 110.21307,41.18768 L 105.85898,41.18768 L 103.46085,30.01852 C 102.67218,26.39017 101.82011,22.2572 97.27687,22.2572 C 92.38628,22.2572 93.55394,27.65204 94.27945,30.74438 L 96.51949,41.18768 L 92.10222,41.18768 z"
                       style="fill:#000000;fill-opacity:1;fill-rule:nonzero;stroke:none"
                       id="path199" />
                    <path
                       d="M 109.4216,19.16486 L 113.6496,19.16486 L 115.38527,27.33658 C 115.92163,29.76611 116.99414,32.51135 119.92851,32.51135 C 121.28519,32.51135 122.23183,31.59589 122.23183,30.23932 C 122.23183,29.04071 121.9794,27.9361 121.75851,26.83173 L 120.18069,19.16486 L 124.40881,19.16486 L 126.11261,27.05276 C 126.33362,28.06219 126.64897,29.35596 126.64897,30.58667 C 126.64897,33.80487 124.53503,35.79236 121.34824,35.79236 C 119.51836,35.79236 117.90891,34.90875 116.74194,33.83627 L 116.67879,33.83627 L 116.96237,35.41385 L 112.82928,35.41385 C 112.76624,34.90875 112.60828,34.05728 112.41902,33.07877 L 109.4216,19.16486 z"
                       style="fill:#000000;fill-opacity:1;fill-rule:nonzero;stroke:none"
                       id="path201" />
                    <path
                       d="M 128.06543,19.16486 L 132.29343,19.16486 L 135.76418,35.41385 L 131.53604,35.41385 L 128.06543,19.16486 z M 132.1985,38.37964 L 136.42651,38.37964 L 137.31,42.41837 L 133.08199,42.41837 L 132.1985,38.37964 z"
                       style="fill:#000000;fill-opacity:1;fill-rule:evenodd;stroke:none"
                       id="path203" />
                    <path
                       d="M 140.36612,19.16486 L 145.03558,19.16486 L 154.53293,35.41385 L 150.05273,35.41385 L 143.64772,23.48721 L 143.58456,23.48721 L 141.94382,35.41385 L 137.6209,35.41385 L 140.36612,19.16486 z"
                       style="fill:#000000;fill-opacity:1;fill-rule:nonzero;stroke:none"
                       id="path205" />
                    <path
                       d="M 168.94817,25.98001 C 169.20105,27.17883 169.35843,28.37814 169.35843,29.60815 C 169.35843,33.74182 166.70811,35.79236 162.701,35.79236 C 157.36909,35.79236 153.45656,30.93353 153.45656,25.88531 C 153.45656,21.05768 156.61195,18.78635 161.28128,18.78635 C 163.01695,18.78635 164.81508,19.19675 166.45593,19.70111 L 166.99219,23.04565 C 165.41449,22.32001 163.74257,21.8782 162.00691,21.8782 C 159.10417,21.8782 157.49519,22.9826 157.49519,25.98001 L 168.94817,25.98001 z M 158.06285,28.88251 C 158.88327,31.12289 160.01953,32.70047 162.63808,32.70047 C 164.40492,32.70047 165.32014,31.7222 165.32014,29.98712 C 165.32014,29.60815 165.28839,29.26151 165.22534,28.88251 L 158.06285,28.88251 z"
                       style="fill:#000000;fill-opacity:1;fill-rule:evenodd;stroke:none"
                       id="path207" />
                    <path
                       d="M 170.0175,19.16486 L 174.24562,19.16486 L 175.76027,26.45322 C 176.29652,29.0719 177.748,31.75409 180.74496,31.75409 C 181.2818,31.75409 181.8812,31.65915 182.3544,31.50165 L 183.23788,35.63486 C 182.73293,35.76096 182.16527,35.79236 181.62891,35.79236 C 179.67233,35.79236 177.59003,34.12033 176.83276,32.35336 L 176.76971,32.35336 L 177.33784,35.41385 L 173.2991,35.41385 C 173.17278,34.65659 173.04668,33.93094 172.92058,33.23672 L 170.0175,19.16486 z"
                       style="fill:#000000;fill-opacity:1;fill-rule:nonzero;stroke:none"
                       id="path209" />
                    <path
                       d="M 194.9393,35.12979 C 193.45651,35.50876 191.87871,35.79236 190.33289,35.79236 C 186.98824,35.79236 183.2966,34.43558 183.2966,30.61829 C 183.2966,26.54767 188.78647,26.29547 188.78647,23.67682 C 188.78647,22.35141 187.30371,21.8782 185.88387,21.8782 C 184.24301,21.8782 183.0444,22.47751 181.84512,23.14056 L 180.93034,19.76416 C 182.47629,19.03876 184.18008,18.78635 185.88387,18.78635 C 189.51245,18.78635 193.20374,20.04822 193.20374,24.27634 C 193.20374,28.25159 187.71387,29.00885 187.71387,31.05963 C 187.71387,32.35336 189.29144,32.70047 190.55331,32.70047 C 191.7525,32.70047 192.92004,32.35336 194.02405,31.94321 L 194.9393,35.12979 z"
                       style="fill:#000000;fill-opacity:1;fill-rule:nonzero;stroke:none"
                       id="path211" />
                    <path
                       d="M 195.03023,19.16486 L 199.25824,19.16486 L 202.72897,35.41385 L 198.50098,35.41385 L 195.03023,19.16486 z M 199.16344,38.37964 L 203.39133,38.37964 L 204.27492,42.41837 L 200.04678,42.41837 L 199.16344,38.37964 z"
                       style="fill:#000000;fill-opacity:1;fill-rule:evenodd;stroke:none"
                       id="path213" />
                    <path
                       d="M 204.17566,32.3222 L 207.23613,32.3222 L 206.03729,26.83173 C 205.75336,25.53821 205.50105,24.30753 205.50105,23.04565 C 205.50105,19.92212 207.5202,18.78635 210.39151,18.78635 C 211.11703,18.78635 211.93745,19.0069 212.66344,19.16486 L 213.38907,22.44635 C 212.85257,22.22534 212.09543,22.06735 211.33817,22.06735 C 210.39151,22.06735 209.72906,22.66666 209.72906,23.64517 C 209.72906,24.27634 209.82352,24.84378 209.91832,25.22275 L 211.46426,32.3222 L 215.2507,32.3222 L 215.91316,35.41385 L 212.12671,35.41385 L 213.16792,40.24127 L 208.62469,38.75836 L 207.89917,35.41385 L 204.83871,35.41385 L 204.17566,32.3222 z"
                       style="fill:#000000;fill-opacity:1;fill-rule:nonzero;stroke:none"
                       id="path215" />
                    <path
                       d="M 222.69234,37.62259 L 225.4057,37.62259 L 229.44456,42.22925 L 225.24832,42.22925 L 222.69234,37.62259 z M 230.64328,25.98001 C 230.89606,27.17883 231.05344,28.37814 231.05344,29.60815 C 231.05344,33.74182 228.40312,35.79236 224.39624,35.79236 C 219.06421,35.79236 215.15155,30.93353 215.15155,25.88531 C 215.15155,21.05768 218.30682,18.78635 222.97641,18.78635 C 224.71194,18.78635 226.51019,19.19675 228.15082,19.70111 L 228.68719,23.04565 C 227.1096,22.32001 225.43745,21.8782 223.70203,21.8782 C 220.79929,21.8782 219.19043,22.9826 219.19043,25.98001 L 230.64328,25.98001 z M 219.75809,28.88251 C 220.5784,31.12289 221.71454,32.70047 224.33308,32.70047 C 226.09991,32.70047 227.01527,31.7222 227.01527,29.98712 C 227.01527,29.60815 226.9834,29.26151 226.92035,28.88251 L 219.75809,28.88251 z"
                       style="fill:#000000;fill-opacity:1;fill-rule:evenodd;stroke:none"
                       id="path217" />
                    <path
                       d="M 255.71906,42.82852 L 253.66817,33.48917 C 252.34323,35.00369 250.7338,35.79236 248.6516,35.79236 C 243.12996,35.79236 240.47952,30.39728 240.47952,25.53821 C 240.47952,22.0043 242.21484,18.78635 246.06433,18.78635 C 248.52551,18.78635 250.10262,19.79602 251.36496,21.56274 L 251.42813,21.56274 L 251.01797,19.16486 L 254.96179,19.16486 C 255.05659,19.98517 255.3089,21.3736 255.5611,22.76157 L 259.94708,42.82852 L 255.71906,42.82852 z M 249.34583,32.51135 C 251.49106,32.51135 252.40617,30.55478 252.40617,28.66174 C 252.40617,25.66431 250.57593,22.06735 247.48405,22.06735 C 245.40187,22.06735 244.89679,24.27634 244.89679,25.91696 C 244.89679,28.34625 246.31664,32.51135 249.34583,32.51135 z"
                       style="fill:#000000;fill-opacity:1;fill-rule:evenodd;stroke:none"
                       id="path219" />
                    <path
                       d="M 276.76077,35.41385 L 272.5329,35.41385 L 270.79724,27.24188 C 270.26099,24.81259 269.18835,22.06735 266.25397,22.06735 C 264.89731,22.06735 263.95078,22.9826 263.95078,24.33939 C 263.95078,25.53821 264.20309,26.64236 264.42386,27.74698 L 266.00168,35.41385 L 261.77368,35.41385 L 260.06989,27.52594 C 259.84888,26.51627 259.53351,25.22275 259.53351,23.99228 C 259.53351,20.77383 261.64758,18.78635 264.83414,18.78635 C 266.66412,18.78635 268.27313,19.66971 269.44055,20.74268 L 269.5036,20.74268 L 269.21964,19.16486 L 273.35321,19.16486 C 273.41638,19.66971 273.57385,20.52142 273.76349,21.49969 L 276.76077,35.41385 z"
                       style="fill:#000000;fill-opacity:1;fill-rule:nonzero;stroke:none"
                       id="path221" />
                    <path
                       d="M 305.05466,14.99979 L 300.41696,19.6069 C 302.08899,20.17456 303.60364,21.12094 304.80234,22.47751 C 307.1687,25.12805 308.49411,28.63034 308.49411,32.22729 C 308.49411,38.09604 305.27579,41.56665 299.31247,41.56665 C 295.71564,41.56665 292.65515,40.21008 290.25702,37.46487 C 288.017,34.84573 286.78629,31.4386 286.78629,27.9361 C 286.78629,22.69852 290.03625,18.78635 295.46298,18.78635 C 295.84171,18.78635 296.18893,18.78635 296.56735,18.81775 L 299.78577,14.99979 L 305.05466,14.99979 z M 299.18637,38.09604 C 302.37305,38.09604 303.88724,35.63486 303.88724,32.70047 C 303.88724,28.31439 301.07928,22.2572 296.0311,22.2572 C 292.8443,22.2572 291.39294,24.81259 291.39294,27.68393 C 291.39294,32.13235 294.04312,38.09604 299.18637,38.09604 z"
                       style="fill:#000000;fill-opacity:1;fill-rule:evenodd;stroke:none"
                       id="path223" />
                    <path
                       d="M 327.4541,35.41385 L 323.2261,35.41385 L 321.49042,27.24188 C 320.95419,24.81259 319.88156,22.06735 316.94708,22.06735 C 315.59039,22.06735 314.64398,22.9826 314.64398,24.33939 C 314.64398,25.53821 314.89618,26.64236 315.11719,27.74698 L 316.69489,35.41385 L 312.46689,35.41385 L 310.76309,27.52594 C 310.54208,26.51627 310.22672,25.22275 310.22672,23.99228 C 310.22672,20.77383 312.34079,18.78635 315.52734,18.78635 C 317.35733,18.78635 318.96643,19.66971 320.13388,20.74268 L 320.1969,20.74268 L 319.91284,19.16486 L 324.04651,19.16486 C 324.10956,19.66971 324.26697,20.52142 324.45667,21.49969 L 327.4541,35.41385 z"
                       style="fill:#000000;fill-opacity:1;fill-rule:nonzero;stroke:none"
                       id="path225" />
                    <path
                       d="M 335.71698,37.62259 L 338.43048,37.62259 L 342.46933,42.22925 L 338.27307,42.22925 L 335.71698,37.62259 z M 343.66806,25.98001 C 343.92072,27.17883 344.07822,28.37814 344.07822,29.60815 C 344.07822,33.74182 341.42776,35.79236 337.4209,35.79236 C 332.08899,35.79236 328.17621,30.93353 328.17621,25.88531 C 328.17621,21.05768 331.33148,18.78635 336.00107,18.78635 C 337.73672,18.78635 339.53485,19.19675 341.1756,19.70111 L 341.71194,23.04565 C 340.13425,22.32001 338.46222,21.8782 336.72668,21.8782 C 333.82407,21.8782 332.21509,22.9826 332.21509,25.98001 L 343.66806,25.98001 z M 332.78275,28.88251 C 333.60315,31.12289 334.7392,32.70047 337.35773,32.70047 C 339.12469,32.70047 340.03992,31.7222 340.03992,29.98712 C 340.03992,29.60815 340.00818,29.26151 339.94501,28.88251 L 332.78275,28.88251 z"
                       style="fill:#000000;fill-opacity:1;fill-rule:evenodd;stroke:none"
                       id="path227" />
                    <path
                       d="M 344.7374,19.16486 L 348.71307,19.16486 L 349.21759,21.46805 L 349.28064,21.46805 C 350.60602,19.19675 351.64746,18.78635 353.95065,18.78635 C 359.59839,18.78635 362.40622,24.11838 362.40622,29.198 C 362.40622,33.04761 360.48187,35.79236 356.44312,35.79236 C 354.58124,35.79236 353.13025,34.90875 352.08881,33.74182 L 352.02585,33.80487 L 352.05762,33.80487 L 351.99457,33.74182 L 351.99457,33.80487 L 354.07675,42.82852 L 349.75394,42.82852 L 344.7374,19.16486 z M 353.31937,22.06735 C 351.26849,22.06735 350.54297,23.80292 350.54297,25.88531 C 350.54297,28.72479 352.15195,32.51135 355.02328,32.51135 C 356.97937,32.51135 357.98895,31.02844 357.98895,29.04071 C 357.98895,26.48462 356.85327,22.06735 353.31937,22.06735 z"
                       style="fill:#000000;fill-opacity:1;fill-rule:evenodd;stroke:none"
                       id="path229" />
                    <path
                       d="M 379.21991,25.98001 C 379.4726,27.17883 379.63019,28.37814 379.63019,29.60815 C 379.63019,33.74182 376.97977,35.79236 372.97278,35.79236 C 367.64087,35.79236 363.72809,30.93353 363.72809,25.88531 C 363.72809,21.05768 366.88348,18.78635 371.55304,18.78635 C 373.2887,18.78635 375.08673,19.19675 376.72748,19.70111 L 377.26382,23.04565 C 375.68613,22.32001 374.0141,21.8782 372.27856,21.8782 C 369.37595,21.8782 367.76697,22.9826 367.76697,25.98001 L 379.21991,25.98001 z M 368.33459,28.88251 C 369.15503,31.12289 370.29117,32.70047 372.90973,32.70047 C 374.67657,32.70047 375.59192,31.7222 375.59192,29.98712 C 375.59192,29.60815 375.56006,29.26151 375.49689,28.88251 L 368.33459,28.88251 z"
                       style="fill:#000000;fill-opacity:1;fill-rule:evenodd;stroke:none"
                       id="path231" />
                    <path
                       d="M 394.74023,35.16165 C 393.604,35.50876 392.08981,35.79236 390.51224,35.79236 C 384.67511,35.79236 380.92044,31.46979 380.92044,25.79086 C 380.92044,21.59415 383.63379,18.78635 387.83005,18.78635 C 389.21848,18.78635 390.60703,18.91245 391.90054,19.54315 L 392.37387,22.88791 C 391.2695,22.35141 389.97574,22.06735 388.93442,22.06735 C 386.0318,22.06735 385.33759,24.18143 385.33759,26.29547 C 385.33759,29.35596 387.23062,32.51135 390.60703,32.51135 C 391.77399,32.51135 392.87836,32.22729 393.69879,31.69104 L 394.74023,35.16165 z"
                       style="fill:#000000;fill-opacity:1;fill-rule:nonzero;stroke:none"
                       id="path233" />
                  </g>
                </g>
              </g>
            </g>
          </g>
        </g>
      </g>
    </g>
  </g>
</svg>
